<?xml version="1.0" encoding="UTF-8" standalone="no"?>
<!-- Created with Inkscape (http://www.inkscape.org/) -->

<svg
   width="57.847198"
   height="56.95071"
   viewBox="0 0 15.305405 15.068209"
   version="1.1"
   id="svg5"
   xml:space="preserve"
   inkscape:version="1.2.1 (9c6d41e410, 2022-07-14)"
   sodipodi:docname="logo_favicon.svg"
   xmlns:inkscape="http://www.inkscape.org/namespaces/inkscape"
   xmlns:sodipodi="http://sodipodi.sourceforge.net/DTD/sodipodi-0.dtd"
   xmlns="http://www.w3.org/2000/svg"
   xmlns:svg="http://www.w3.org/2000/svg"><sodipodi:namedview
     id="namedview7"
     pagecolor="#ffffff"
     bordercolor="#000000"
     borderopacity="0.25"
     inkscape:showpageshadow="2"
     inkscape:pageopacity="0.0"
     inkscape:pagecheckerboard="0"
     inkscape:deskcolor="#d1d1d1"
     inkscape:document-units="mm"
     showgrid="false"
     inkscape:zoom="4.3137482"
     inkscape:cx="124.71753"
     inkscape:cy="13.097658"
     inkscape:window-width="1920"
     inkscape:window-height="1051"
     inkscape:window-x="-9"
     inkscape:window-y="-9"
     inkscape:window-maximized="1"
     inkscape:current-layer="svg5"
     showguides="false" /><defs
     id="defs2" /><g
     inkscape:groupmode="layer"
     id="layer4-6-8"
     inkscape:label="logo"
     transform="matrix(0.07683646,0,0,0.07683646,15.894159,-4.48276)"
     style="fill:#ffffff;fill-opacity:1"><path
       style="fill:#ffffff;fill-opacity:1;fill-rule:evenodd;stroke-width:9.99999;stroke-dasharray:none;paint-order:fill markers stroke"
       d="m -89.153038,59.224635 c -8.59131,5.66461 -18.267292,12.902987 -23.691292,20.400837 -4.65759,6.438405 -8.34597,13.747394 -10.52947,21.387968 -2.07383,7.25688 -3.07646,14.99297 -0.98714,22.04607 5.10952,17.24869 19.06574,28.45989 22.04607,45.40832 1.82745,16.28223 -8.57302,24.83772 -17.11038,35.53694 -3.74247,4.75341 -10.76381,12.54499 -10.76381,12.54499 l 24.29597,37.89935 c 0,0 21.920353,-34.02805 30.2187,-47.02874 12.583715,-19.70521 11.229588,-39.18784 2.29318,-55.79549 -8.025006,-14.91388 -22.579212,-26.91787 -28.60461,-40.4113 -5.37348,-12.033515 -2.88491,-27.171812 2.632364,-35.865983 0.513272,-0.794354 10.200418,-16.123062 10.200418,-16.123062 z"
       id="path2444-0-8-3"
       sodipodi:nodetypes="cssscccccssccc" /><path
       style="fill:#ffffff;fill-opacity:1;fill-rule:evenodd;stroke-width:9.99999;stroke-dasharray:none;paint-order:fill markers stroke"
       d="m -99.643348,89.039156 c 0,0 4.014266,6.561314 4.657549,9.009653 1.176665,4.478381 -0.335806,8.069511 -0.577499,12.644711 0,0 1.292412,3.73081 12.275026,15.4666 3.33635,3.56515 8.161546,10.34798 8.161546,10.34798 0,0 4.607365,-8.5169 5.130508,-13.21235 0.588111,-5.27856 -0.257788,-10.67301 -2.35707,-15.75837 -4.51921,-10.947439 -15.170445,-23.593156 -23.72429,-29.323744 -1.316486,1.734011 -3.09829,5.524108 -3.56577,10.82552 z"
       id="path2446-9-0-3"
       sodipodi:nodetypes="cscscascc" /><path
       style="fill:#ffffff;fill-opacity:1;fill-rule:evenodd;stroke-width:9.99999;stroke-dasharray:none;paint-order:fill markers stroke"
       d="m -107.70601,68.259304 c -2.72232,1.929152 -5.23966,4.611398 -6.98699,7.055002 -6.15524,-6.519604 -13.10731,-11.922336 -20.5055,-16.972732 0,0 10.65203,2.700488 15.7942,4.606641 4.01548,1.488501 11.69829,5.311089 11.69829,5.311089 z"
       id="path2448-6-8-4"
       sodipodi:nodetypes="cccac" /><path
       style="fill:#ffffff;fill-opacity:1;fill-rule:evenodd;stroke-width:9.99999;stroke-dasharray:none;paint-order:fill markers stroke"
       d="m -122.7157,140.89681 c 0,0 -6.21812,5.65441 -8.88424,8.88423 -2.86616,3.47216 -5.89417,7.00798 -7.56805,11.18756 -2.61279,6.52397 -4.36761,11.14058 -3.50662,20.78951 0.86099,9.64893 3.8937,22.20173 12.53016,34.85671 9.32695,-8.96789 20.42609,-18.78579 24.07812,-31.48255 1.50531,-5.23341 0.0669,-11.05526 -1.51327,-16.26657 -3.07597,-10.14454 -15.1361,-27.96889 -15.1361,-27.96889 z"
       id="path2450-1-0-9"
       sodipodi:nodetypes="csazcaac" /><path
       style="fill:#ffffff;fill-opacity:1;fill-rule:evenodd;stroke-width:9.99999;stroke-dasharray:none;paint-order:fill markers stroke"
       d="m -81.390769,85.664981 c 0,0 5.896677,-8.578893 9.45595,-11.576526 9.219265,-8.030009 17.950607,-11.241845 30.224527,-9.517568 0,0 -9.386084,3.142491 -13.381862,6.095582 -3.995777,2.953092 -7.185215,7.043016 -10.021342,11.304374 -2.836127,4.261359 -7.341182,15.263833 -7.341182,15.263833 -2.473864,-4.028191 -4.998856,-7.767334 -8.936091,-11.569695 z"
       id="path2452-0-4-4"
       sodipodi:nodetypes="ccczccc" /><path
       style="fill:#ffffff;fill-opacity:1;fill-rule:evenodd;stroke-width:9.99999;stroke-dasharray:none;paint-order:fill markers stroke"
       d="m -19.856922,81.309766 c -7.893351,-3.163131 -16.608308,-2.958003 -23.93276,0.488645 -4.352628,2.114666 -8.575516,5.20303 -11.14369,9.304453 -4.565645,7.291426 -5.979849,15.326686 -6.229318,25.045666 -0.500566,19.50133 -10.162736,26.81999 -10.162736,26.81999 19.383293,30.38844 14.599422,53.83421 -14.540177,88.03978 18.573261,-20.31143 38.905164,-39.31102 43.690007,-65.68389 4.628916,-25.51344 -6.607364,-53.70459 1.801104,-71.640897 1.713126,-3.654311 4.996618,-6.470464 8.510257,-8.612469 3.513639,-2.142005 12.007313,-3.761278 12.007313,-3.761278 z"
       id="path2454-0-0-9"
       sodipodi:nodetypes="ccasccsszc" /><path
       style="fill:#ffffff;fill-opacity:1;fill-rule:evenodd;stroke-width:9.99999;stroke-dasharray:none;paint-order:fill markers stroke"
       d="m -7.6624266,137.29165 c 0,0 -11.2658724,-1.57384 -16.5937164,8.27144 -5.327839,9.84527 -5.555477,15.86503 -12.975636,33.56967 -7.420159,17.70464 -34.27524,47.67389 -58.417503,68.14057 23.660084,-14.90857 54.455305,-23.95416 69.922153,-47.50817 9.339089,-14.22223 5.619468,-39.76778 9.543611,-50.14312 4.052907,-10.71579 8.5210914,-12.33039 8.5210914,-12.33039 z"
       id="path2456-9-4-1"
       sodipodi:nodetypes="cszcasc" /><path
       style="fill:#ffffff;fill-opacity:1;fill-rule:evenodd;stroke-width:9.99999;stroke-dasharray:none;paint-order:fill markers stroke"
       d="m -157.59544,71.053952 c 3.63587,1.649347 6.99259,4.166755 9.54233,7.239007 2.6627,3.208357 4.61555,7.134584 5.59378,11.187556 1.87012,7.748142 -0.76535,15.818815 0.23957,23.910705 1.00327,11.42097 11.89145,17.71751 16.28602,23.17896 -6.75238,5.49842 -15.03967,14.30618 -19.18117,21.11004 0,0 -7.38591,-9.43456 -10.20953,-14.68537 -2.50119,-4.65123 -4.75543,-9.55435 -5.86584,-14.71738 -0.6942,-3.2278 -0.85522,-6.40302 -0.43976,-9.89506 0.63536,-5.34042 3.40694,-15.54249 3.40694,-15.54249 0,0 1.16963,-7.800444 0.7187,-11.672464 -0.54172,-4.651604 -1.42594,-9.578691 -4.0627,-13.448882 -3.0652,-4.499044 -12.82122,-10.116712 -12.82122,-10.116712 5.50368,0.802989 11.58864,1.091282 16.79288,3.45209 z"
       id="path2458-1-7-2"
       sodipodi:nodetypes="asacccaascaaca" /><path
       style="fill:#ffffff;fill-opacity:1;fill-rule:evenodd;stroke-width:9.99999;stroke-dasharray:none;paint-order:fill markers stroke"
       d="m -206.85699,112.30151 c 0,0 14.05874,0.68457 21.32618,2.79658 7.26743,2.112 11.73183,5.65102 15.87238,10.44336 4.55273,5.2694 5.39036,9.63732 8.828,18.93442 3.43765,9.29709 13.4407,18.10595 13.4407,18.10595 -5.0694,21.72821 0.48583,35.49321 10.4962,53.159 -13.56992,-14.22486 -33.84492,-34.64688 -39.23043,-50.14252 -5.34513,-15.37943 -1.13229,-31.70859 -12.99884,-43.217 -5.20501,-5.04792 -17.73419,-10.07979 -17.73419,-10.07979 z"
       id="path2460-9-4-1"
       sodipodi:nodetypes="csacccssc" /><path
       style="fill:#ffffff;fill-opacity:1;fill-rule:evenodd;stroke-width:9.99999;stroke-dasharray:none;paint-order:fill markers stroke"
       d="m -205.98048,173.51432 c 7.78562,-3.78822 16.22075,-2.30825 23.87433,1.52169 7.65358,3.82994 11.7211,14.03827 17.8051,20.86249 16.43203,18.43124 35.17476,32.23825 50.48006,54.21498 -12.84454,-14.35804 -43.98229,-18.99784 -60.20033,-35.78995 -9.42737,-9.76107 -10.80383,-27.66156 -19.57495,-35.69601 -3.66112,-3.12145 -12.38421,-5.11321 -12.38421,-5.11321 z"
       id="path2462-0-8-4"
       sodipodi:nodetypes="czacaccc" /></g></svg>
